<?xml version="1.0" standalone="no"?>
<!DOCTYPE svg PUBLIC "-//W3C//DTD SVG 20010904//EN"
 "http://www.w3.org/TR/2001/REC-SVG-20010904/DTD/svg10.dtd">
<svg version="1.0" xmlns="http://www.w3.org/2000/svg"
 width="100.000000pt" height="69.000000pt" viewBox="0 0 100.000000 69.000000"
 preserveAspectRatio="xMidYMid meet">
<metadata>
Created by potrace 1.10, written by Peter Selinger 2001-2011
</metadata>
<g transform="translate(0.000000,69.000000) scale(0.100000,-0.100000)"
fill="#000000" stroke="none">
<path d="M10 665 c-14 -17 9 -38 75 -68 17 -8 36 -21 43 -30 12 -14 8 -18 -25
-36 -41 -20 -74 -51 -55 -51 6 0 14 5 17 10 4 6 25 20 47 31 40 20 42 21 55 3
18 -24 16 -32 -6 -39 -28 -9 -101 -64 -101 -76 0 -6 14 1 31 16 18 14 48 35
69 45 l37 19 31 -67 c17 -37 34 -80 38 -97 4 -16 11 -35 15 -41 9 -11 6 -62
-7 -121 -5 -24 -3 -34 8 -38 8 -3 90 -18 181 -34 92 -15 170 -30 173 -34 3 -3
1 -15 -6 -26 -7 -14 -7 -21 -1 -21 6 0 14 12 17 26 4 17 11 23 21 20 8 -3 21
-6 29 -6 11 0 13 -6 9 -21 -5 -15 -4 -19 4 -15 6 4 11 13 11 20 0 10 12 11 58
3 31 -5 61 -13 67 -18 24 -23 52 -7 103 56 28 36 47 65 42 65 -8 0 -37 -33
-88 -99 -18 -24 -20 -24 -58 -9 -21 9 -154 35 -294 58 -140 23 -258 45 -262
49 -13 12 3 47 25 57 15 6 21 17 20 32 -4 32 289 332 321 329 16 -1 21 4 21
20 0 11 3 24 6 27 9 9 -1 55 -13 62 -6 4 -8 -4 -4 -22 10 -48 -2 -55 -64 -39
-30 8 -71 15 -90 15 -29 1 -32 2 -17 11 17 10 24 39 10 39 -204 6 -487 3 -493
-5z m107 -31 c-3 -3 -12 -4 -19 -1 -8 3 -5 6 6 6 11 1 17 -2 13 -5z m240 0
c-3 -3 -12 -4 -19 -1 -8 3 -5 6 6 6 11 1 17 -2 13 -5z m108 -4 c-8 -13 -65
-13 -85 0 -11 7 0 10 38 10 33 0 51 -4 47 -10z m-145 -25 c0 -10 -10 -15 -32
-15 -18 0 -50 -5 -71 -11 -34 -9 -41 -8 -68 15 l-31 26 101 0 c83 0 101 -3
101 -15z m128 -15 c37 -1 91 -6 120 -13 l53 -13 -30 -28 -30 -28 -28 20 c-34
24 -114 52 -148 52 -19 0 -25 5 -25 23 1 20 2 20 11 5 8 -14 24 -18 77 -18z
m-128 -39 c0 -27 -3 -29 -47 -33 -37 -4 -53 -1 -67 13 -24 23 -20 27 35 38 75
15 79 14 79 -18z m169 -16 c33 -15 61 -30 61 -33 0 -3 -7 -13 -16 -23 -15 -16
-18 -16 -67 7 -29 13 -67 27 -84 30 -27 5 -33 11 -33 31 0 24 3 25 39 20 21
-2 66 -17 100 -32z m-177 -127 l-4 -103 -18 57 c-10 32 -27 73 -39 93 -26 44
-26 43 2 48 65 13 62 17 59 -95z m153 65 c19 -9 34 -20 33 -24 -7 -16 -178
-190 -178 -181 0 6 4 13 9 16 5 3 12 55 16 115 l7 108 39 -8 c21 -5 54 -17 74
-26z"/>
<path d="M717 660 c8 -30 16 -32 64 -15 70 25 72 25 67 30 -3 3 -24 -2 -48
-10 -54 -19 -70 -19 -70 0 0 8 -4 15 -9 15 -5 0 -7 -9 -4 -20z"/>
<path d="M800 617 c-30 -11 -57 -22 -58 -23 -3 -2 115 -420 134 -473 3 -11 14
-5 39 19 19 19 35 39 35 44 0 6 -14 -4 -32 -21 l-31 -32 -63 217 c-35 119 -64
222 -64 229 0 6 26 20 57 30 31 11 53 22 48 24 -6 3 -35 -3 -65 -14z"/>
<path d="M523 398 c-93 -95 -177 -187 -186 -204 l-16 -31 255 -43 c140 -23
257 -40 260 -38 4 5 -122 451 -135 476 -5 8 -66 -47 -178 -160z m230 -61 c32
-111 60 -211 63 -223 5 -19 3 -21 -33 -15 l-38 6 -6 80 c-4 44 -15 100 -25
125 -26 67 -88 159 -99 148 -3 -3 5 -18 18 -34 60 -71 107 -217 92 -285 -7
-30 -12 -33 -39 -23 -12 5 -16 20 -16 63 -1 64 -31 147 -75 205 l-28 37 59 60
c32 32 61 59 64 59 3 0 31 -91 63 -203z m-133 -21 c20 -41 32 -84 37 -130 l6
-69 -24 6 c-13 3 -86 15 -161 28 -76 12 -138 26 -138 30 0 4 48 58 106 119
123 127 120 127 174 16z"/>
</g>
</svg>
