<?xml version="1.0" standalone="no"?>
<!DOCTYPE svg PUBLIC "-//W3C//DTD SVG 20010904//EN"
 "http://www.w3.org/TR/2001/REC-SVG-20010904/DTD/svg10.dtd">
<svg version="1.0" xmlns="http://www.w3.org/2000/svg"
 width="103.000000pt" height="80.000000pt" viewBox="0 0 103.000000 80.000000"
 preserveAspectRatio="xMidYMid meet">
<metadata>
Created by potrace 1.10, written by Peter Selinger 2001-2011
</metadata>
<g transform="translate(0.000000,80.000000) scale(0.100000,-0.100000)"
fill="#000000" stroke="none">
<path d="M166 693 c-3 -54 -12 -144 -18 -200 -10 -85 -15 -103 -28 -103 -50 0
-109 -91 -110 -168 0 -75 48 -142 102 -142 7 0 24 -16 37 -35 13 -19 30 -35
38 -35 10 0 4 14 -18 43 -59 76 -56 72 -32 59 27 -15 105 -16 119 -2 8 8 24
-6 53 -45 23 -30 47 -55 53 -55 7 0 1 12 -13 28 -14 15 -38 44 -53 65 -27 37
-28 38 -48 20 -21 -18 -21 -18 -15 60 8 106 39 171 84 175 l33 3 46 147 c25
81 50 162 55 180 6 17 14 32 18 32 13 0 92 -60 96 -73 3 -7 -17 -75 -44 -152
-34 -99 -54 -143 -69 -150 -60 -31 -91 -92 -92 -178 0 -134 82 -190 160 -108
l37 38 26 -43 c15 -24 31 -44 37 -44 14 0 14 2 -24 67 -25 43 -33 66 -29 89 4
29 15 35 209 124 130 59 212 102 224 118 43 53 7 149 -60 165 -30 7 -61 -1
-223 -62 -103 -39 -189 -71 -191 -71 -3 0 12 47 32 104 l37 105 -30 31 c-32
34 -103 75 -113 66 -3 -3 -24 -68 -48 -144 -60 -192 -60 -192 -87 -192 l-24 0
22 166 c15 120 18 168 10 174 -23 19 -85 40 -118 40 l-34 0 -7 -97z m57 45
c-31 -305 -31 -307 -62 -375 -35 -78 -48 -131 -47 -190 1 -23 -3 -39 -8 -36
-5 4 -7 -3 -4 -15 7 -26 5 -27 -27 -6 -43 28 -58 113 -31 178 16 39 60 76 91
76 20 0 22 7 33 108 6 59 14 149 18 200 6 76 10 92 23 92 13 0 16 -8 14 -32z
m83 -58 c-27 -237 -34 -284 -47 -294 -35 -26 -69 -134 -69 -218 0 -68 -23 -82
-35 -22 -9 52 2 109 41 195 27 60 36 100 49 205 8 71 15 148 15 171 0 42 0 42
26 31 25 -12 26 -15 20 -68z m639 -129 c-14 -12 -404 -161 -422 -161 -45 0 14
31 182 95 168 64 268 92 240 66z m49 -47 c12 -31 6 -71 -14 -89 -11 -10 -106
-57 -212 -106 l-193 -88 -6 31 c-8 35 -39 80 -60 86 -8 2 -4 -3 8 -12 52 -39
57 -178 8 -242 -36 -47 -67 -61 -101 -46 -52 24 -71 139 -35 218 24 53 61 81
117 90 25 3 80 20 122 36 169 64 230 88 287 111 73 31 72 31 79 11z"/>
<path d="M426 283 c-46 -50 -53 -170 -13 -211 41 -41 106 0 128 80 31 117 -46
206 -115 131z m73 -12 c7 -5 16 -31 18 -57 5 -61 -21 -117 -56 -122 -32 -5
-41 12 -41 79 0 79 37 126 79 100z"/>
</g>
</svg>
