<?xml version="1.0" standalone="no"?>
<!DOCTYPE svg PUBLIC "-//W3C//DTD SVG 20010904//EN"
 "http://www.w3.org/TR/2001/REC-SVG-20010904/DTD/svg10.dtd">
<svg version="1.0" xmlns="http://www.w3.org/2000/svg"
 width="80.000000pt" height="79.000000pt" viewBox="0 0 80.000000 79.000000"
 preserveAspectRatio="xMidYMid meet">
<metadata>
Created by potrace 1.10, written by Peter Selinger 2001-2011
</metadata>
<g transform="translate(0.000000,79.000000) scale(0.100000,-0.100000)"
fill="#000000" stroke="none">
<path d="M730 776 c-6 -8 -17 -13 -24 -10 -8 3 -12 -3 -11 -15 1 -22 15 -42
15 -22 0 6 12 23 28 36 15 13 22 25 16 25 -6 0 -17 -6 -24 -14z"/>
<path d="M640 730 c0 -23 -4 -30 -20 -30 -11 0 -36 -6 -54 -14 -29 -12 -40
-12 -73 -1 -81 29 -180 13 -303 -51 -70 -36 -100 -57 -100 -69 0 -4 -20 -25
-45 -47 -25 -22 -44 -43 -41 -46 3 -3 26 14 51 37 24 22 48 41 53 41 5 0 17
-9 28 -21 13 -14 26 -19 44 -15 19 3 26 0 28 -12 1 -9 12 -84 25 -167 21 -137
22 -152 8 -177 -14 -25 -14 -29 0 -43 14 -14 22 -13 83 5 37 12 70 20 72 17 2
-2 -21 -31 -52 -65 -31 -34 -52 -62 -47 -62 11 0 73 65 101 107 16 22 39 37
82 51 33 12 60 19 60 16 0 -7 -51 -85 -83 -127 -16 -21 -27 -40 -24 -43 6 -7
46 45 91 120 33 55 41 61 91 77 30 9 55 14 55 10 0 -12 -42 -75 -81 -121 -42
-50 -46 -62 -26 -79 20 -16 36 0 122 123 47 68 75 118 73 131 -1 11 7 37 19
58 12 20 18 37 13 37 -6 0 -18 -16 -27 -35 -10 -21 -24 -35 -35 -35 -9 0 -24
-13 -32 -28 -13 -25 -34 -34 -203 -86 -220 -68 -234 -72 -213 -57 13 9 13 11
-2 11 -9 0 -18 -6 -21 -12 -2 -7 -7 -10 -11 -7 -11 11 5 38 20 32 9 -3 14 2
14 14 0 16 156 195 317 364 22 23 32 41 27 52 -3 9 -10 14 -15 11 -5 -3 -8 -2
-7 3 2 5 -13 23 -32 40 l-35 31 30 7 c88 18 90 19 93 53 2 18 -1 32 -7 32 -6
0 -11 -13 -11 -30z m-135 -85 l50 -24 -40 7 c-92 16 -198 -8 -280 -64 -42 -28
-88 -29 -93 -2 -2 12 16 27 67 53 123 61 213 71 296 30z m12 -50 c21 -9 45
-23 55 -32 17 -15 16 -18 -14 -55 l-31 -40 -20 42 c-35 74 -113 88 -225 40
-29 -12 -51 -25 -48 -27 2 -3 18 3 35 12 17 9 56 20 86 26 73 13 120 -6 141
-57 8 -20 14 -40 12 -44 -4 -11 -231 -261 -234 -257 -2 1 -34 218 -47 316 -2
17 98 69 155 80 66 13 95 12 135 -4z m227 -314 c3 -5 -1 -12 -10 -15 -9 -4
-14 -13 -10 -21 7 -19 -131 -215 -151 -215 -21 0 -16 12 32 70 25 30 61 85 81
123 34 65 47 77 58 58z"/>
<path d="M734 698 c-17 -18 -42 -58 -57 -90 -14 -31 -31 -59 -37 -63 -6 -4 -8
-16 -5 -28 4 -15 3 -18 -3 -9 -7 10 -51 -32 -173 -163 -162 -175 -185 -203
-158 -193 8 3 93 31 189 63 148 49 171 60 152 68 -25 12 -27 31 -7 67 9 15 14
54 15 100 0 57 6 86 23 121 l22 47 0 -141 c0 -116 3 -141 15 -144 13 -4 13 -3
1 5 -12 8 -6 19 27 58 37 41 50 64 38 64 -2 0 -20 -21 -41 -47 l-38 -48 7 145
7 145 36 37 c21 21 33 38 27 38 -6 0 -24 -15 -40 -32z m-119 -273 c0 -36 -3
-65 -6 -65 -4 0 -10 -17 -14 -37 -10 -56 -20 -68 -65 -82 -23 -7 -48 -15 -56
-18 -11 -4 -11 3 3 33 9 22 21 60 27 86 8 33 25 61 59 97 27 28 49 51 50 51 1
0 2 -29 2 -65z m12 -27 c-2 -13 -4 -5 -4 17 -1 22 1 32 4 23 2 -10 2 -28 0
-40z m-146 -90 c-30 -88 -36 -95 -101 -117 l-61 -20 63 70 c35 38 74 83 88 99
13 16 26 28 27 26 2 -1 -6 -28 -16 -58z"/>
<path d="M590 661 c-17 -5 -21 -9 -13 -14 7 -5 21 -3 32 3 34 18 41 13 29 -21
-6 -16 -8 -33 -4 -36 10 -10 16 2 23 41 5 33 4 36 -18 35 -13 -1 -35 -4 -49
-8z"/>
<path d="M605 630 c3 -5 11 -10 16 -10 6 0 7 5 4 10 -3 6 -11 10 -16 10 -6 0
-7 -4 -4 -10z"/>
<path d="M144 471 c-21 -15 -50 -41 -64 -57 -15 -16 4 -6 45 26 39 30 72 55
74 57 2 2 0 3 -6 3 -5 0 -28 -13 -49 -29z"/>
</g>
</svg>
