<?xml version="1.0" standalone="no"?>
<!DOCTYPE svg PUBLIC "-//W3C//DTD SVG 20010904//EN"
 "http://www.w3.org/TR/2001/REC-SVG-20010904/DTD/svg10.dtd">
<svg version="1.0" xmlns="http://www.w3.org/2000/svg"
 width="76.000000pt" height="79.000000pt" viewBox="0 0 76.000000 79.000000"
 preserveAspectRatio="xMidYMid meet">
<metadata>
Created by potrace 1.10, written by Peter Selinger 2001-2011
</metadata>
<g transform="translate(0.000000,79.000000) scale(0.100000,-0.100000)"
fill="#000000" stroke="none">
<path d="M684 759 c-20 -20 -23 -20 -52 -5 -21 11 -58 16 -115 16 l-84 0 -141
-88 c-77 -49 -147 -94 -156 -101 -8 -7 -40 -57 -71 -111 -70 -123 -74 -166
-25 -250 19 -33 27 -56 22 -64 -29 -37 -13 -114 28 -136 14 -7 40 -9 69 -5 25
3 105 9 177 13 95 5 137 11 155 24 39 25 129 187 200 357 l63 154 -27 50 c-26
50 -27 51 -8 71 45 50 49 96 7 96 -12 0 -31 -9 -42 -21z m46 -16 c0 -5 -13
-23 -29 -42 -28 -34 -29 -34 -40 -13 -9 17 -8 22 8 27 11 3 22 12 25 20 5 15
36 21 36 8z m-117 -38 c8 -8 31 -43 51 -79 l36 -64 -60 -142 c-66 -156 -153
-316 -181 -330 -10 -6 -61 -10 -115 -10 -97 0 -97 0 -79 20 16 17 30 20 92 19
45 -1 79 3 88 11 25 21 105 168 105 194 0 28 -73 162 -102 189 -17 14 -40 17
-127 17 -123 0 -120 2 -184 -108 -50 -86 -53 -104 -27 -147 21 -34 21 -65 0
-65 -12 0 -60 92 -60 116 0 9 25 61 56 115 l56 99 142 90 141 90 77 0 c54 0
81 -4 91 -15z m-193 -198 c0 -2 -61 -61 -135 -131 l-134 -127 -16 30 c-8 17
-15 38 -15 47 0 21 76 154 98 172 14 10 202 19 202 9z m40 -57 l21 -40 -33
-42 c-18 -24 -38 -48 -45 -55 -6 -7 -44 -56 -83 -108 -75 -100 -90 -115 -90
-91 0 23 -50 76 -71 76 -10 0 -19 2 -19 5 0 4 292 294 297 295 2 0 12 -18 23
-40z m60 -99 c11 -28 9 -36 -35 -113 -27 -46 -53 -86 -59 -90 -6 -4 -37 -8
-69 -8 l-57 0 97 124 c54 68 101 123 104 120 4 -2 12 -17 19 -33z m-342 -197
c27 -18 30 -69 5 -96 -34 -38 -103 -11 -103 41 0 31 8 44 35 59 27 15 37 15
63 -4z"/>
</g>
</svg>
