<?xml version="1.0" standalone="no"?>
<!DOCTYPE svg PUBLIC "-//W3C//DTD SVG 20010904//EN"
 "http://www.w3.org/TR/2001/REC-SVG-20010904/DTD/svg10.dtd">
<svg version="1.0" xmlns="http://www.w3.org/2000/svg"
 width="105.000000pt" height="68.000000pt" viewBox="0 0 105.000000 68.000000"
 preserveAspectRatio="xMidYMid meet">
<metadata>
Created by potrace 1.10, written by Peter Selinger 2001-2011
</metadata>
<g transform="translate(0.000000,68.000000) scale(0.100000,-0.100000)"
fill="#000000" stroke="none">
<path d="M595 625 c-38 -25 -69 -49 -67 -55 1 -6 40 -71 87 -145 47 -74 85
-143 85 -153 0 -25 -27 -48 -79 -67 -35 -12 -99 -15 -330 -15 l-286 0 3 -90 3
-90 314 0 314 0 87 31 c72 27 90 37 106 65 36 61 88 41 88 -32 0 -32 5 -47 21
-58 19 -13 24 -13 46 1 34 23 54 67 54 121 1 67 -10 87 -98 182 -44 47 -121
145 -172 218 -51 72 -96 132 -99 131 -4 0 -38 -20 -77 -44z m178 -135 c53 -74
126 -166 163 -205 71 -75 84 -98 84 -149 0 -33 -37 -101 -55 -101 -6 0 -11 20
-13 45 -7 99 -92 123 -144 40 -11 -17 -42 -35 -102 -57 l-86 -33 -295 0 -295
0 0 64 0 64 287 4 c251 3 294 6 331 22 47 20 82 58 82 88 0 19 -124 229 -159
271 -9 11 -11 21 -5 27 22 22 99 67 105 61 3 -3 49 -67 102 -141z"/>
<path d="M778 333 c-21 -14 -38 -30 -38 -34 0 -13 6 -11 43 14 19 12 43 27 53
34 18 11 18 12 -1 12 -11 0 -37 -12 -57 -26z"/>
<path d="M74 136 c-3 -8 -4 -31 -2 -52 l3 -39 273 -3 272 -2 0 55 0 55 -270 0
c-222 0 -272 -2 -276 -14z m53 -36 c0 -18 -6 -30 -14 -30 -13 0 -18 41 -6 53
13 14 20 6 20 -23z m353 0 l0 -30 -128 0 -128 0 2 28 c1 15 3 28 3 30 1 1 57
2 126 2 l125 0 0 -30z m-282 -3 c4 -20 -25 -34 -40 -19 -15 15 -1 44 19 40 10
-2 19 -11 21 -21z m350 0 c4 -20 -25 -34 -40 -19 -15 15 -1 44 19 40 10 -2 19
-11 21 -21z m39 -14 c-3 -10 -5 -4 -5 12 0 17 2 24 5 18 2 -7 2 -21 0 -30z"/>
</g>
</svg>
