<?xml version="1.0" standalone="no"?>
<!DOCTYPE svg PUBLIC "-//W3C//DTD SVG 20010904//EN"
 "http://www.w3.org/TR/2001/REC-SVG-20010904/DTD/svg10.dtd">
<svg version="1.0" xmlns="http://www.w3.org/2000/svg"
 width="73.000000pt" height="80.000000pt" viewBox="0 0 73.000000 80.000000"
 preserveAspectRatio="xMidYMid meet">
<metadata>
Created by potrace 1.10, written by Peter Selinger 2001-2011
</metadata>
<g transform="translate(0.000000,80.000000) scale(0.100000,-0.100000)"
fill="#000000" stroke="none">
<path d="M185 710 c-182 -111 -177 -103 -173 -317 3 -154 5 -174 23 -199 27
-35 277 -175 326 -181 35 -5 52 2 166 71 71 43 143 93 161 112 l34 35 -3 157
c-3 171 -8 204 -39 238 -12 12 -81 54 -154 93 -175 93 -173 93 -341 -9z m238
33 c20 -9 37 -19 37 -23 0 -12 -77 -50 -101 -50 -13 0 -44 10 -69 21 l-44 20
43 29 c47 31 69 31 134 3z m152 -89 c47 -25 89 -53 94 -63 5 -9 11 -61 14
-116 l6 -101 -45 -24 c-62 -34 -84 -72 -84 -148 l0 -61 -84 -50 c-46 -28 -92
-51 -101 -51 -10 0 -58 21 -106 47 l-89 48 0 53 c0 72 -20 106 -85 143 l-55
31 0 97 c0 117 4 123 106 187 l76 47 54 -26 c69 -34 97 -34 159 3 28 16 51 29
53 29 1 1 40 -20 87 -45z m115 -367 c0 -58 -16 -84 -70 -112 l-30 -16 0 50 c0
27 3 57 6 66 6 16 71 65 86 65 5 0 8 -24 8 -53z m-594 12 c19 -11 39 -29 44
-39 10 -19 14 -110 5 -110 -14 0 -85 52 -95 69 -14 27 -13 101 1 101 7 0 27
-9 45 -21z"/>
<path d="M193 605 c-49 -21 -63 -59 -63 -170 0 -95 0 -96 34 -133 33 -36 37
-37 101 -37 63 0 68 2 96 33 48 53 36 147 -22 178 -33 16 -102 18 -130 4 -17
-10 -19 -7 -19 24 0 25 6 38 19 46 29 15 92 12 111 -5 20 -18 62 -9 58 13 -2
9 -18 27 -37 39 -39 26 -99 30 -148 8z m-14 -176 c-14 -27 -19 -24 -19 12 0
27 2 30 15 19 11 -9 12 -17 4 -31z m124 0 c65 -35 40 -111 -36 -111 -54 0 -77
17 -77 57 0 55 58 82 113 54z"/>
<path d="M461 564 l-43 -47 21 -20 20 -20 21 24 20 24 -2 -133 -3 -132 28 0
27 0 0 175 0 175 -23 0 c-16 0 -39 -16 -66 -46z m59 -16 c0 -23 -3 -29 -9 -19
-6 9 -16 11 -27 7 -15 -6 -14 -2 5 18 14 15 26 26 28 26 2 0 3 -15 3 -32z"/>
</g>
</svg>
