<?xml version="1.0" standalone="no"?>
<!DOCTYPE svg PUBLIC "-//W3C//DTD SVG 20010904//EN"
 "http://www.w3.org/TR/2001/REC-SVG-20010904/DTD/svg10.dtd">
<svg version="1.0" xmlns="http://www.w3.org/2000/svg"
 width="112.000000pt" height="80.000000pt" viewBox="0 0 112.000000 80.000000"
 preserveAspectRatio="xMidYMid meet">
<metadata>
Created by potrace 1.10, written by Peter Selinger 2001-2011
</metadata>
<g transform="translate(0.000000,80.000000) scale(0.100000,-0.100000)"
fill="#000000" stroke="none">
<path d="M685 779 c-11 -6 -49 -28 -85 -49 -36 -21 -175 -102 -310 -180 -135
-78 -254 -150 -265 -161 -16 -15 -19 -31 -18 -79 1 -67 30 -134 89 -207 32
-39 121 -93 154 -93 9 0 62 34 119 75 157 113 184 113 407 0 81 -41 155 -75
165 -75 33 0 98 69 134 144 29 57 36 84 38 138 1 37 -3 72 -8 77 -6 6 -59 30
-117 54 l-107 44 21 21 c15 14 23 37 26 74 8 104 -80 217 -175 225 -26 2 -57
-2 -68 -8z m99 -23 c100 -42 154 -191 94 -264 -11 -13 -14 -10 -18 23 -7 58
-49 79 -156 78 -101 0 -174 -31 -215 -90 -53 -77 -113 -269 -107 -341 2 -31
-2 -37 -56 -78 -33 -24 -68 -44 -79 -44 -78 0 -190 126 -216 242 -16 68 -7 84
73 130 39 22 123 71 186 108 479 281 436 260 494 236z m33 -211 c21 -14 32
-45 16 -45 -5 0 -39 11 -78 25 -38 13 -79 25 -90 25 -17 0 -17 2 -5 10 21 14
129 3 157 -15z m-240 -16 c-17 -23 -13 -47 23 -125 47 -104 70 -169 70 -201 0
-38 3 -37 -43 -18 -49 20 -97 19 -159 -5 -29 -11 -55 -20 -57 -20 -2 0 0 24 3
52 19 141 87 290 149 325 30 17 30 16 14 -8z m113 -13 c78 -21 383 -153 397
-173 35 -46 -48 -248 -121 -297 -25 -16 -29 -15 -144 43 l-119 60 -6 53 c-3
31 -26 101 -56 172 -54 126 -58 141 -38 149 20 9 30 8 87 -7z"/>
<path d="M76 324 c-37 -36 -4 -136 65 -198 64 -59 124 -44 121 29 -2 61 -55
140 -114 171 -35 18 -53 18 -72 -2z m77 -22 c56 -37 107 -135 91 -176 -18 -46
-110 8 -147 87 -17 36 -22 88 -10 100 11 12 37 7 66 -11z"/>
<path d="M985 285 c-54 -57 -82 -168 -50 -195 34 -28 107 62 124 153 15 81
-19 101 -74 42z m58 -28 c-4 -58 -62 -157 -93 -157 -15 0 -12 66 6 108 17 43
63 94 79 89 5 -2 9 -20 8 -40z"/>
</g>
</svg>
