<?xml version="1.0" standalone="no"?>
<!DOCTYPE svg PUBLIC "-//W3C//DTD SVG 20010904//EN"
 "http://www.w3.org/TR/2001/REC-SVG-20010904/DTD/svg10.dtd">
<svg version="1.0" xmlns="http://www.w3.org/2000/svg"
 width="86.000000pt" height="80.000000pt" viewBox="0 0 86.000000 80.000000"
 preserveAspectRatio="xMidYMid meet">
<metadata>
Created by potrace 1.10, written by Peter Selinger 2001-2011
</metadata>
<g transform="translate(0.000000,80.000000) scale(0.100000,-0.100000)"
fill="#000000" stroke="none">
<path d="M223 772 c-41 -22 -56 -42 -143 -195 -71 -125 -72 -129 -68 -185 4
-44 14 -73 46 -126 37 -64 40 -73 35 -124 l-6 -54 28 18 c21 14 30 15 33 6 9
-27 57 -75 89 -88 23 -10 80 -14 195 -14 232 0 229 -2 362 236 87 156 82 188
-61 419 -77 124 -80 125 -297 125 -151 -1 -186 -4 -213 -18z m377 -18 c0 -19
4 -25 15 -20 22 8 18 -3 -7 -25 -30 -24 -37 -24 -73 6 -16 14 -22 22 -12 19
13 -5 17 -1 17 20 0 22 4 26 30 26 26 0 30 -4 30 -26z m-95 7 c3 -5 0 -13 -6
-16 -5 -4 -8 -13 -5 -21 3 -8 -1 -14 -11 -14 -47 0 -72 -80 -35 -113 10 -10
22 -15 25 -12 15 11 -10 -14 -51 -50 l-44 -39 -32 18 c-40 21 -62 54 -47 69 6
6 11 30 11 53 0 80 -51 80 -91 1 -12 -23 -27 -49 -34 -57 -14 -17 -78 -136
-88 -161 -3 -9 1 -29 9 -44 8 -15 11 -31 8 -37 -3 -5 2 -18 12 -29 14 -16 15
-24 6 -44 -6 -14 -15 -25 -20 -25 -15 0 -82 129 -82 160 0 36 9 55 102 213 67
114 84 131 137 148 37 11 229 11 236 0z m180 -71 c14 -22 25 -42 25 -44 0 -3
-12 -3 -27 -1 -16 2 -33 4 -39 4 -20 2 -24 31 -8 57 9 13 18 24 20 24 2 0 15
-18 29 -40z m-395 -50 c0 -38 -2 -40 -30 -40 -16 0 -30 3 -30 7 0 8 49 73 56
73 2 0 4 -18 4 -40z m301 30 c35 -19 20 -30 -40 -30 -40 0 -63 -5 -71 -15 -20
-24 -30 -17 -30 20 l0 35 61 0 c33 0 69 -5 80 -10z m128 -63 c20 -10 91 -109
91 -127 0 -3 -10 -16 -23 -30 -17 -19 -130 -151 -153 -178 -1 -2 -21 28 -43
66 -31 53 -49 73 -72 81 -18 6 -93 11 -168 11 l-135 0 54 33 55 34 22 -20 c21
-18 25 -19 40 -5 10 8 48 40 86 71 62 53 65 57 40 57 -22 0 -25 2 -13 10 22
14 190 12 219 -3z m-453 -60 l36 -33 -66 -43 c-37 -24 -78 -58 -91 -75 -24
-30 -25 -31 -25 -7 0 26 88 191 102 191 5 0 25 -15 44 -33z m566 -132 c3 -14
2 -25 -1 -25 -10 0 -30 37 -24 44 12 12 21 6 25 -19z m-592 -9 c0 -2 -25 -23
-56 -46 l-57 -43 19 33 c11 18 33 39 49 46 31 14 45 17 45 10z m65 -21 c-36
-29 -19 -34 18 -5 20 16 40 20 102 20 42 0 85 -4 95 -10 10 -5 38 -43 62 -85
23 -41 45 -75 48 -75 3 0 39 40 79 90 69 84 91 99 91 64 0 -9 -38 -61 -84
-117 -47 -56 -93 -113 -104 -126 l-19 -24 -6 40 c-18 108 -124 191 -252 196
-65 3 -73 1 -117 -29 -69 -48 -66 -19 3 32 31 23 67 44 80 47 13 2 26 5 29 6
3 0 -8 -10 -25 -24z m84 -52 c0 -8 -262 -204 -281 -211 -11 -5 0 44 20 83 29
59 85 105 152 126 33 10 110 11 109 2z m122 -70 c32 -33 56 -78 60 -113 l4
-25 -143 -3 c-141 -3 -143 -2 -168 23 -14 14 -24 32 -22 41 2 8 41 43 88 78
l85 63 35 -18 c19 -9 47 -30 61 -46z m281 35 c-10 -18 -45 -77 -76 -131 -46
-79 -65 -102 -92 -113 -41 -17 -334 -20 -382 -3 -17 6 -40 25 -51 42 l-20 32
20 21 21 22 31 -33 c37 -39 28 -38 219 -36 l147 1 97 115 c53 63 98 115 101
115 2 0 -4 -15 -15 -32z"/>
</g>
</svg>
