<?xml version="1.0" standalone="no"?>
<!DOCTYPE svg PUBLIC "-//W3C//DTD SVG 20010904//EN"
 "http://www.w3.org/TR/2001/REC-SVG-20010904/DTD/svg10.dtd">
<svg version="1.0" xmlns="http://www.w3.org/2000/svg"
 width="54.000000pt" height="80.000000pt" viewBox="0 0 54.000000 80.000000"
 preserveAspectRatio="xMidYMid meet">
<metadata>
Created by potrace 1.10, written by Peter Selinger 2001-2011
</metadata>
<g transform="translate(0.000000,80.000000) scale(0.100000,-0.100000)"
fill="#000000" stroke="none">
<path d="M26 774 c-24 -23 -20 -100 11 -246 l26 -126 -26 -134 c-29 -142 -33
-208 -17 -239 9 -16 22 -19 90 -19 69 0 81 3 90 20 9 17 21 20 70 20 49 0 61
-3 70 -20 9 -17 21 -20 90 -20 68 0 81 3 90 19 16 31 12 97 -16 238 l-27 133
26 132 c48 245 44 258 -78 258 -65 0 -74 -2 -88 -24 -13 -20 -23 -23 -68 -22
-42 2 -55 7 -67 24 -13 19 -23 22 -88 22 -53 0 -77 -4 -88 -16z m418 -145
c-26 -68 -55 -141 -66 -163 -11 -21 -18 -48 -15 -60 3 -11 32 -95 66 -185 34
-90 61 -166 61 -168 0 -2 -23 -3 -51 -1 l-51 3 -48 135 c-38 109 -51 136 -67
138 -23 3 -21 7 -87 -178 l-34 -95 -52 -3 c-47 -3 -52 -1 -45 15 4 10 26 73
50 139 24 67 51 136 59 152 20 39 20 65 -1 105 -9 17 -37 89 -64 159 l-47 128
51 0 52 0 44 -120 c24 -66 50 -125 58 -131 23 -20 40 7 87 132 l42 114 49 5
c28 3 51 5 53 4 1 -1 -18 -57 -44 -125z m-174 90 c41 -1 65 2 68 9 2 7 8 12
13 12 5 0 1 -17 -8 -37 -8 -21 -20 -47 -24 -58 -5 -11 -15 -38 -22 -59 -8 -22
-18 -41 -24 -43 -6 -2 -27 38 -47 89 -34 88 -45 128 -28 101 5 -7 34 -13 72
-14z m-185 -130 c28 -72 54 -142 60 -155 6 -17 5 -35 -4 -57 -7 -18 -35 -90
-62 -162 -54 -141 -56 -134 -15 53 24 109 26 129 15 180 -6 31 -15 77 -19 103
-7 41 -22 104 -36 152 -3 9 -2 17 3 17 5 0 31 -59 58 -131z m410 39 c-9 -40
-18 -80 -20 -88 -28 -151 -28 -140 -2 -265 14 -66 28 -133 32 -150 15 -58 -5
-17 -50 106 -26 68 -51 138 -57 154 -9 27 -3 48 46 172 31 78 56 148 57 155 0
10 2 10 6 1 2 -7 -3 -46 -12 -85z m-182 -440 c20 -57 39 -112 43 -123 7 -19 7
-19 -13 -2 -23 20 -122 24 -141 5 -7 -7 -12 -8 -12 -3 0 18 74 225 81 225 4 0
23 -46 42 -102z"/>
</g>
</svg>
